<svg width="226" height="73" viewBox="0 0 226 73" fill="none" xmlns="http://www.w3.org/2000/svg">
<path d="M65.4054 60.1842V27.5896C65.4072 27.512 65.4393 27.4382 65.495 27.384C65.5506 27.3297 65.6253 27.2994 65.7032 27.2994H71.9764C72.0152 27.2985 72.0538 27.3053 72.0899 27.3195C72.126 27.3337 72.1588 27.3549 72.1866 27.382C72.2143 27.409 72.2364 27.4413 72.2514 27.4769C72.2665 27.5126 72.2742 27.5509 72.2742 27.5896V39.3385H72.3689C73.2129 38.3361 74.2769 37.5408 75.4786 37.0142C76.6803 36.4876 77.9873 36.2438 79.2986 36.3017C84.2455 36.3017 85.8223 39.5275 85.8223 43.7924V60.1842C85.8205 60.2618 85.7884 60.3356 85.7327 60.3899C85.6771 60.4441 85.6024 60.4744 85.5245 60.4744H79.2513C79.1735 60.4744 79.0987 60.4441 79.0431 60.3899C78.9874 60.3356 78.9553 60.2618 78.9535 60.1842V44.3998C78.9535 42.5507 77.0181 41.9839 75.7796 41.9839C74.5412 41.9839 72.2742 42.7869 72.2742 45.1084V60.191C72.2742 60.2297 72.2665 60.268 72.2514 60.3036C72.2364 60.3393 72.2143 60.3716 72.1866 60.3986C72.1588 60.4256 72.126 60.4469 72.0899 60.4611C72.0538 60.4752 72.0152 60.4821 71.9764 60.4812H65.7032C65.6242 60.4812 65.5485 60.4499 65.4926 60.3942C65.4368 60.3385 65.4054 60.263 65.4054 60.1842V60.1842Z" fill="white"/>
<path d="M115.517 53.7463V42.5103H112.628C112.55 42.5103 112.476 42.4797 112.422 42.4253C112.367 42.3709 112.337 42.2971 112.337 42.2201V38.1711C112.336 38.1085 112.356 38.0475 112.392 37.9966C112.429 37.9457 112.48 37.9075 112.54 37.8876L116.404 36.7809C116.404 36.7809 118.434 30.4374 118.434 30.343C118.456 30.2852 118.495 30.2353 118.546 30.1993C118.596 30.1634 118.656 30.1429 118.718 30.1405H122.102C122.181 30.1405 122.257 30.1718 122.312 30.2275C122.368 30.2832 122.4 30.3587 122.4 30.4374V36.7809H127.475C127.553 36.7809 127.628 36.8112 127.683 36.8655C127.739 36.9197 127.771 36.9935 127.773 37.0711V42.2201C127.773 42.2588 127.765 42.2971 127.75 42.3327C127.735 42.3684 127.713 42.4007 127.685 42.4277C127.657 42.4547 127.625 42.476 127.589 42.4902C127.552 42.5043 127.514 42.5112 127.475 42.5103H122.4V53.0378C122.4 54.1242 123.015 54.7923 124.538 54.7923H127.475C127.553 54.7923 127.628 54.8227 127.683 54.8769C127.739 54.9311 127.771 55.0049 127.773 55.0825V59.6107C127.771 59.6718 127.75 59.731 127.714 59.7803C127.678 59.8297 127.628 59.867 127.57 59.8874C126.053 60.5878 124.402 60.9516 122.731 60.9536C117.595 60.9536 115.517 57.9641 115.517 53.7463Z" fill="white"/>
<path d="M213.799 53.7463V42.5102H210.909C210.831 42.5102 210.756 42.4799 210.701 42.4257C210.645 42.3714 210.613 42.2976 210.611 42.22V38.171C210.612 38.1087 210.632 38.0481 210.668 37.9974C210.704 37.9467 210.755 37.9084 210.814 37.8876L214.644 36.7674C214.644 36.7674 216.675 30.4239 216.675 30.3294C216.694 30.2712 216.731 30.2205 216.781 30.1842C216.831 30.148 216.891 30.128 216.952 30.127H220.336C220.375 30.1269 220.413 30.1347 220.449 30.1497C220.484 30.1647 220.517 30.1867 220.544 30.2143C220.571 30.242 220.592 30.2748 220.607 30.3108C220.621 30.3468 220.628 30.3852 220.627 30.4239V36.7674H225.702C225.741 36.7665 225.78 36.7733 225.816 36.7875C225.852 36.8017 225.885 36.8229 225.912 36.8499C225.94 36.877 225.962 36.9093 225.977 36.9449C225.992 36.9806 226 37.0189 226 37.0575V42.2066C226 42.2452 225.992 42.2835 225.977 42.3192C225.962 42.3548 225.94 42.3871 225.912 42.4142C225.885 42.4412 225.852 42.4624 225.816 42.4766C225.78 42.4908 225.741 42.4976 225.702 42.4967H220.627V53.0242C220.627 54.1107 221.249 54.7788 222.765 54.7788H225.702C225.741 54.7779 225.78 54.7847 225.816 54.7989C225.852 54.8131 225.885 54.8343 225.912 54.8614C225.94 54.8884 225.962 54.9207 225.977 54.9563C225.992 54.992 226 55.0303 226 55.069V59.5971C225.998 59.6572 225.978 59.7154 225.943 59.7645C225.908 59.8137 225.86 59.8516 225.804 59.8738C224.285 60.5736 222.632 60.9373 220.958 60.9401C215.883 60.9536 213.799 57.964 213.799 53.7463Z" fill="white"/>
<path d="M131.881 60.1842V37.071C131.882 36.9934 131.914 36.9196 131.97 36.8654C132.026 36.8112 132.1 36.7808 132.178 36.7808H137.849C137.912 36.7804 137.973 36.7998 138.024 36.8361C138.075 36.8725 138.114 36.924 138.133 36.9833L138.81 39.3385H138.905C139.738 38.3392 140.792 37.5453 141.983 37.0186C143.174 36.4918 144.472 36.2465 145.774 36.3017C149.157 36.3017 150.775 37.8201 151.682 40.1415H151.871C153.583 37.3004 156.561 36.3017 159.315 36.3017C164.255 36.3017 165.839 39.5274 165.839 43.7924V60.1842C165.837 60.2618 165.805 60.3356 165.749 60.3898C165.694 60.444 165.619 60.4744 165.541 60.4744H159.227C159.15 60.4744 159.076 60.4438 159.021 60.3894C158.967 60.335 158.936 60.2612 158.936 60.1842V44.501C158.936 42.6519 157.183 41.9366 155.945 41.9366C154.51 41.9366 152.385 42.8476 152.291 44.9329V60.1842C152.291 60.2229 152.283 60.2612 152.268 60.2968C152.253 60.3325 152.231 60.3648 152.203 60.3918C152.175 60.4189 152.142 60.4401 152.106 60.4543C152.07 60.4684 152.032 60.4753 151.993 60.4744H145.679C145.602 60.4727 145.529 60.4415 145.475 60.3875C145.421 60.3334 145.39 60.2606 145.388 60.1842V44.501C145.388 42.6519 143.527 41.9366 142.174 41.9366C140.942 41.9366 138.743 42.8949 138.743 45.2163V60.1842C138.741 60.2606 138.71 60.3334 138.655 60.3875C138.601 60.4415 138.528 60.4727 138.452 60.4744H132.172C132.094 60.4744 132.02 60.4438 131.966 60.3894C131.911 60.335 131.881 60.2612 131.881 60.1842V60.1842Z" fill="white"/>
<path d="M170.021 41.9838V37.6851C170.022 37.6173 170.046 37.5519 170.089 37.4993C170.132 37.4467 170.192 37.4099 170.258 37.3949C173.277 36.7387 176.352 36.3726 179.441 36.3016C185.532 36.3016 189.091 37.7728 189.091 44.312V60.1842C189.091 60.2611 189.061 60.3349 189.006 60.3893C188.951 60.4438 188.877 60.4743 188.8 60.4743H182.791C182.726 60.4762 182.662 60.4558 182.61 60.4165C182.559 60.3772 182.522 60.3214 182.507 60.2584L181.83 57.9167H182.107C180.395 60.2854 178.121 60.9535 175.34 60.9535C170.874 60.9535 168.492 57.4916 168.492 53.4155C168.492 47.2543 173.012 45.9923 176.382 45.9923H182.175V44.4334C182.175 42.4697 180.727 42.0715 175.212 42.0715C172.877 42.0715 170.393 42.2537 170.265 42.2537C170.201 42.2399 170.143 42.2064 170.099 42.158C170.055 42.1095 170.028 42.0486 170.021 41.9838ZM182.202 50.237H178.426C176.396 50.237 175.13 51.0064 175.13 53.1186C175.13 55.4131 176.775 55.9394 178.372 55.9394C178.881 55.9614 179.389 55.8777 179.863 55.6935C180.338 55.5093 180.769 55.2288 181.129 54.8696C181.489 54.5104 181.771 54.0805 181.956 53.6072C182.14 53.1338 182.224 52.6273 182.202 52.1198V50.237Z" fill="white"/>
<path d="M193.104 60.1841V37.0709C193.104 36.9939 193.135 36.9201 193.189 36.8657C193.244 36.8113 193.318 36.7807 193.395 36.7807H199.012C199.082 36.7798 199.149 36.8038 199.203 36.8483C199.256 36.8929 199.292 36.9551 199.303 37.0236L199.98 40.6138H200.075C201.59 37.5095 204.724 36.3825 207.417 36.3083C207.457 36.3074 207.496 36.3144 207.533 36.3289C207.57 36.3435 207.604 36.3652 207.632 36.3928C207.66 36.4205 207.683 36.4535 207.698 36.49C207.714 36.5265 207.722 36.5657 207.722 36.6052V43.0499C207.72 43.1281 207.688 43.2027 207.632 43.258C207.577 43.3133 207.502 43.3451 207.424 43.3469H205.82C201.489 43.3469 199.98 45.0744 199.98 47.2069V60.1841C199.98 60.261 199.949 60.3348 199.895 60.3893C199.84 60.4437 199.766 60.4742 199.689 60.4742H193.409C193.37 60.4751 193.331 60.4684 193.294 60.4543C193.258 60.4402 193.224 60.419 193.196 60.3921C193.168 60.3651 193.145 60.3329 193.129 60.2972C193.114 60.2615 193.105 60.2231 193.104 60.1841V60.1841Z" fill="white"/>
<path d="M88.7594 48.6242C88.7594 41.093 91.7099 36.3016 100.074 36.3016C108.439 36.3016 111.443 41.093 111.443 48.6242C111.443 56.1554 108.486 60.9535 100.074 60.9535C91.6625 60.9535 88.7594 56.2094 88.7594 48.6242ZM96.2034 48.6242C96.2034 52.6732 96.8057 55.2039 100.088 55.2039C103.37 55.2039 104.02 52.707 104.02 48.6242C104.02 44.5414 103.417 42.085 100.088 42.085C96.7583 42.085 96.1899 44.5482 96.1899 48.6242H96.2034Z" fill="white"/>
<path d="M52.5002 46.2758C52.8251 39.8311 50.6122 29.2766 45.1848 20.6319C45.0427 20.4092 44.7991 20.497 44.8464 20.7331C45.2119 22.0828 45.2998 24.4245 43.202 24.2828C39.4867 24.0534 43.317 16.124 35.1963 10.6578C35.1652 10.6305 35.1255 10.6149 35.0841 10.6139C35.0427 10.6129 35.0023 10.6265 34.9699 10.6523C34.9376 10.6781 34.9154 10.7145 34.9073 10.755C34.8992 10.7955 34.9057 10.8376 34.9256 10.8738C35.4873 11.9333 35.8189 15.24 34.5263 16.3669C33.4909 17.2712 31.5825 17.0418 29.7892 14.0522C28.5452 11.9966 27.903 9.63474 27.9353 7.23399C27.9676 4.83323 28.6731 2.48941 29.9719 0.467762C30.1208 0.218072 29.911 0.123593 29.7351 0.184328C18.4608 3.84195 16.2479 17.0283 13.8319 21.8399C13.4327 22.6429 13.0808 23.0681 12.3973 23.0208C10.3671 22.8859 11.8288 18.5399 12.5326 17.0215C12.5518 16.9849 12.5568 16.9426 12.5467 16.9025C12.5366 16.8625 12.5122 16.8275 12.478 16.8042C12.4438 16.7809 12.4023 16.771 12.3612 16.7762C12.3201 16.7814 12.2824 16.8015 12.2552 16.8326C6.4759 22.8521 1.24478 33.1029 0.256757 42.6249C0.256757 42.4022 0.162015 43.4144 0.101109 44.1568L0.0402038 45.0341C0.0402038 45.3782 0.0402036 45.7089 0.00636719 46.0801C-0.0702222 49.5472 0.544805 52.9949 1.81572 56.223C3.08664 59.451 4.98812 62.3951 7.40969 64.8842C9.83127 67.3732 12.7247 69.3576 15.9218 70.7221C19.119 72.0866 22.5562 72.804 26.0337 72.8326C29.5113 72.8613 32.9599 72.2005 36.1792 70.8888C39.3985 69.5771 42.3243 67.6406 44.7868 65.1917C47.2492 62.7428 49.1991 59.8304 50.5233 56.6237C51.8474 53.417 52.5194 49.9799 52.5002 46.512V46.2758ZM26.1552 58.4228C23.7438 58.404 21.3923 57.6718 19.3986 56.3191C17.4048 54.9663 15.8586 53.0539 14.9557 50.8241C14.0528 48.5943 13.834 46.1475 14.3268 43.7935C14.8197 41.4396 16.0021 39.2845 17.7242 37.6012C19.4464 35.9179 21.6308 34.7823 24.0007 34.3381C26.3707 33.8939 28.8195 34.1612 31.037 35.106C33.2545 36.0509 35.1409 37.6308 36.4572 39.6457C37.7735 41.6606 38.4604 44.0197 38.431 46.4242C38.3953 49.6388 37.0832 52.7082 34.7821 54.9598C32.4811 57.2114 29.3789 58.4615 26.1552 58.4363V58.4228Z" fill="#EF4E23"/>
</svg>
