<svg width="64" height="64" viewBox="0 0 64 64" fill="none" xmlns="http://www.w3.org/2000/svg">
<path fill-rule="evenodd" clip-rule="evenodd" d="M43.6667 30.25C36.2569 30.25 30.25 36.2569 30.25 43.6667C30.25 51.0764 36.2569 57.0833 43.6667 57.0833C51.0764 57.0833 57.0833 51.0764 57.0833 43.6667C57.0833 36.2569 51.0764 30.25 43.6667 30.25ZM48.9176 41.8168C49.8285 41.4941 50.3057 40.494 49.983 39.5829C49.6603 38.6719 48.6602 38.1948 47.7491 38.5175C46.6242 38.916 45.5798 39.6622 44.6959 40.4373C43.7941 41.2283 42.958 42.14 42.2543 42.9837C41.9132 43.3925 41.5982 43.7913 41.3165 44.1611C41.1107 43.9686 40.9045 43.8057 40.6998 43.6695C40.6578 43.6415 40.6161 43.6123 40.5734 43.5824C40.2392 43.3498 39.857 43.0838 39 43.0838C38.0335 43.0838 37.25 43.8673 37.25 44.8338C37.25 45.7081 37.8912 46.4328 38.7291 46.563C38.7375 46.5679 38.7473 46.574 38.7585 46.5815C38.8885 46.6683 39.2886 46.9907 39.7681 47.9497C40.0502 48.5139 40.614 48.8826 41.2437 48.9148C41.8735 48.947 42.4725 48.6371 42.8108 48.1049C43.1907 47.5668 44.3107 45.9823 44.9418 45.2256C45.5763 44.4651 46.2844 43.6998 47.0038 43.0689C47.7414 42.4221 48.3954 42.0016 48.9176 41.8168Z" fill="white"/>
<path fill-rule="evenodd" clip-rule="evenodd" d="M30.9953 6.91675H30.6719C25.7088 6.9167 21.7638 6.91668 18.6735 7.30985C15.4961 7.71407 12.8785 8.56884 10.7964 10.5391C8.69689 12.5258 7.77004 15.0514 7.33476 18.115C6.9159 21.063 6.91595 24.8161 6.91602 29.4927V29.8457C6.91595 34.5222 6.9159 38.2756 7.33476 41.2235C7.77004 44.2872 8.69689 46.8128 10.7964 48.7994C12.6292 50.5337 14.8794 51.4055 17.566 51.8647C20.1968 52.3143 23.4431 52.3983 27.4062 52.4167C28.6641 52.4226 29.6887 51.4087 29.6947 50.152C29.7006 48.8955 28.6853 47.8721 27.4274 47.8663C23.4245 47.8476 20.5407 47.7564 18.3344 47.3793C16.184 47.0118 14.8902 46.4049 13.9295 45.4958C12.86 44.4839 12.2023 43.0967 11.8453 40.5842C11.4771 37.9928 11.4717 34.5635 11.4717 29.6693C11.4717 28.1771 11.4722 26.821 11.4834 25.5834H50.1839C50.1891 26.1616 50.1921 26.7663 50.1937 27.3994C50.1965 28.6559 51.219 29.6723 52.4769 29.6693C53.735 29.6663 54.7524 28.6452 54.7493 27.3885C54.7398 23.3468 54.6805 20.0369 54.2155 17.3754C53.7371 14.6364 52.7945 12.3594 50.8706 10.5391C48.7886 8.56884 46.1711 7.71407 42.9935 7.30985C39.9033 6.91668 35.9586 6.9167 30.9953 6.91675ZM16.8327 16.8334C16.8327 15.5448 17.8774 14.5001 19.166 14.5001H19.187C20.4756 14.5001 21.5203 15.5448 21.5203 16.8334C21.5203 18.1221 20.4756 19.1667 19.187 19.1667H19.166C17.8774 19.1667 16.8327 18.1221 16.8327 16.8334ZM28.4993 14.5001C27.2107 14.5001 26.166 15.5448 26.166 16.8334C26.166 18.1221 27.2107 19.1667 28.4993 19.1667H28.5203C29.809 19.1667 30.8537 18.1221 30.8537 16.8334C30.8537 15.5448 29.809 14.5001 28.5203 14.5001H28.4993Z" fill="white"/>
</svg>
