<svg width="64" height="64" viewBox="0 0 64 64" fill="none" xmlns="http://www.w3.org/2000/svg">
<path fill-rule="evenodd" clip-rule="evenodd" d="M44.173 8.31528C41.0764 7.91983 37.1265 7.91988 32.1689 7.91992H31.8327C26.8749 7.91988 22.9248 7.91983 19.8283 8.31528C16.6335 8.72323 14.0073 9.58742 11.9282 11.5622C9.84593 13.54 8.9318 16.0433 8.50084 19.0882C8.08389 22.0337 8.08394 25.7892 8.08399 30.4944V30.8224C8.08394 35.5277 8.08389 39.2833 8.50084 42.2287C8.9318 45.2735 9.84593 47.7769 11.9282 49.7546C12.5617 50.3565 13.2474 50.856 13.9864 51.2715C14.914 51.7928 16.0651 51.3882 16.6056 50.4963C17.3168 49.3227 16.6353 47.8611 15.5409 47.0012C15.3985 46.8894 15.263 46.7718 15.1332 46.6486C14.0465 45.6164 13.3762 44.1927 13.0149 41.6407C12.6445 39.0234 12.6395 35.5653 12.6395 30.6584C12.6395 28.7132 12.6403 26.9955 12.6643 25.4679C12.674 24.8537 12.6788 24.5465 12.8832 24.3533C13.0876 24.16 13.4101 24.16 14.0552 24.16H49.9461C50.5913 24.16 50.9137 24.16 51.1181 24.3533C51.3225 24.5465 51.3274 24.8537 51.337 25.4679C51.361 26.9955 51.3617 28.7132 51.3617 30.6584C51.3617 35.5653 51.3568 39.0234 50.9863 41.6407C50.6251 44.1927 49.9547 45.6164 48.8681 46.6486C48.7384 46.7718 48.6028 46.8894 48.4605 47.0012C47.3659 47.8611 46.6846 49.3227 47.3958 50.4963C47.9362 51.3882 49.0874 51.7928 50.0149 51.2715C50.7539 50.856 51.4397 50.3565 52.0732 49.7546C54.1554 47.7769 55.0694 45.2735 55.5006 42.2287C55.9173 39.2833 55.9173 35.5277 55.9173 30.8226V30.4944C55.9173 25.7892 55.9173 22.0337 55.5006 19.0882C55.0694 16.0433 54.1554 13.54 52.0732 11.5622C49.9939 9.58742 47.3678 8.72323 44.173 8.31528ZM20.5719 13.7999C19.289 13.7999 18.249 14.8028 18.249 16.0399C18.249 17.2771 19.289 18.2799 20.5719 18.2799H20.5928C21.8757 18.2799 22.9157 17.2771 22.9157 16.0399C22.9157 14.8028 21.8757 13.7999 20.5928 13.7999H20.5719ZM29.9053 13.7999C28.6225 13.7999 27.5823 14.8028 27.5823 16.0399C27.5823 17.2771 28.6225 18.2799 29.9053 18.2799H29.9261C31.209 18.2799 32.2489 17.2771 32.2489 16.0399C32.2489 14.8028 31.209 13.7999 29.9261 13.7999H29.9053Z" fill="black"/>
<path d="M26.9198 33.8431C28.2873 33.1969 29.9421 32.5601 31.9978 32.5601C34.0535 32.5601 35.709 33.1969 37.077 33.8429C37.5308 34.0573 37.9294 34.2578 38.2952 34.4417C39.1205 34.857 39.7802 35.1889 40.538 35.4093L40.5873 35.4237C41.063 35.5619 41.4961 35.6878 41.8333 35.8083C42.1268 35.9131 42.6572 36.1125 43.0655 36.5264C43.4272 36.8929 43.6001 37.2959 43.7006 37.6175C43.7846 37.8859 43.8462 38.1975 43.8985 38.4631L43.9085 38.5133C45.3554 45.8298 42.1714 52.8728 34.3804 55.5933L34.3218 55.6137C33.6052 55.8641 32.9876 56.0801 32.0015 56.0801C31.0152 56.0801 30.3976 55.8641 29.681 55.6137L29.6225 55.5933C21.8317 52.873 18.6441 45.8305 20.0908 38.5133L20.1006 38.4634C20.1531 38.1975 20.2145 37.8861 20.2985 37.6178C20.3991 37.2961 20.572 36.8931 20.9335 36.5266C21.3419 36.1129 21.8721 35.9133 22.1658 35.8085C22.5028 35.688 22.9359 35.5621 23.4117 35.4237L23.461 35.4093C24.2182 35.1889 24.8772 34.8572 25.7019 34.4421C26.0676 34.258 26.4659 34.0575 26.9198 33.8431Z" fill="black"/>
</svg>
