<svg width="64" height="64" viewBox="0 0 64 64" fill="none" xmlns="http://www.w3.org/2000/svg">
<path fill-rule="evenodd" clip-rule="evenodd" d="M44.9316 32.5833H33.0671C30.9638 32.5833 29.2442 32.5833 27.8642 32.7326C26.4301 32.888 25.1567 33.2217 24.042 34.0316C23.3982 34.4994 22.8321 35.0655 22.3643 35.7092C21.5544 36.8239 21.2208 38.0974 21.0655 39.5315C20.9159 40.9114 20.916 42.6311 20.916 44.7343V44.9322C20.916 47.0355 20.9159 48.7551 21.0655 50.135C21.2208 51.5691 21.5544 52.8426 22.3643 53.9573C22.8321 54.601 23.3982 55.1671 24.042 55.6349C25.1567 56.4448 26.4301 56.7785 27.8642 56.9339C29.2442 57.0833 30.9638 57.0833 33.0671 57.0833H44.9316C47.0349 57.0833 48.7545 57.0833 50.1345 56.9339C51.5685 56.7785 52.8421 56.4448 53.9567 55.6349C54.6005 55.1671 55.1665 54.601 55.6344 53.9573C56.4443 52.8426 56.778 51.5691 56.9333 50.135C57.0827 48.7551 57.0827 47.0355 57.0827 44.9322V44.7343C57.0827 42.6311 57.0827 40.9114 56.9333 39.5315C56.778 38.0974 56.4443 36.8239 55.6344 35.7092C55.1665 35.0655 54.6005 34.4994 53.9567 34.0316C52.8421 33.2217 51.5685 32.888 50.1345 32.7326C48.7545 32.5833 47.0349 32.5833 44.9316 32.5833ZM35.8561 43.1008C36.8321 42.2594 36.9413 40.7861 36.1002 39.8098C35.2588 38.8338 33.7855 38.7246 32.8092 39.566L30.6628 41.4159L30.5884 41.48C30.2045 41.8104 29.7572 42.1957 29.4238 42.5723C29.0379 43.0084 28.4993 43.7625 28.4993 44.8333C28.4993 45.904 29.0379 46.6584 29.4238 47.0945C29.7572 47.4711 30.2045 47.8561 30.5884 48.1865L30.6628 48.2507L32.8092 50.1007C33.7855 50.9422 35.2588 50.8327 36.1002 49.8567C36.9413 48.8807 36.8321 47.4072 35.8561 46.566L33.8459 44.8333L35.8561 43.1008ZM42.1426 43.1008C41.1665 42.2594 41.0573 40.7861 41.8985 39.8098C42.7399 38.8338 44.2132 38.7246 45.1894 39.566L47.3359 41.4159L47.4103 41.48C47.7941 41.8104 48.2414 42.1957 48.5749 42.5723C48.9608 43.0084 49.4993 43.7625 49.4993 44.8333C49.4993 45.904 48.9608 46.6584 48.5749 47.0945C48.2414 47.4711 47.7941 47.8561 47.4103 48.1865L47.3359 48.2507L45.1894 50.1007C44.2132 50.9422 42.7399 50.8327 41.8985 49.8567C41.0573 48.8807 41.1665 47.4072 42.1426 46.566L44.1527 44.8333L42.1426 43.1008Z" fill="black"/>
<path d="M32.1097 6.91675H27.2223C23.0759 6.91668 19.7301 6.91663 17.0979 7.27515C14.361 7.64795 12.0593 8.44602 10.235 10.2942C8.4156 12.1374 7.63454 14.4545 7.26884 17.2101C6.91592 19.8695 6.91597 23.2529 6.91602 27.4597V27.7877C6.91597 31.9942 6.91592 35.3776 7.26884 38.0371C7.63454 40.7928 8.4156 43.1098 10.235 44.9529C11.6892 46.4264 13.456 47.2398 15.5248 47.6962C16.7516 47.9666 17.966 47.1943 18.2374 45.9709C18.5087 44.7478 17.7341 43.5368 16.5073 43.2661C15.0521 42.9453 14.1602 42.4618 13.4777 41.7704C12.6318 40.9134 12.0802 39.7073 11.7795 37.4419C11.4707 35.1148 11.466 32.0327 11.466 27.6237C11.466 25.0102 11.4677 22.863 11.5333 21.063C11.5557 20.4492 11.5669 20.1423 11.7703 19.9462C11.9736 19.7501 12.2864 19.7501 12.912 19.7501H46.42C47.0456 19.7501 47.3585 19.7501 47.5617 19.9462C47.7652 20.1423 47.7764 20.4492 47.7988 21.063C47.8644 22.863 47.866 25.0102 47.866 27.6237C47.866 28.8764 48.8845 29.8921 50.141 29.8921C51.3975 29.8921 52.416 28.8764 52.416 27.6237V27.4597C52.416 23.253 52.416 19.8695 52.0632 17.2101C51.6976 14.4545 50.9164 12.1374 49.0971 10.2942C47.2729 8.44602 44.971 7.64795 42.234 7.27515C39.602 6.91663 36.256 6.91668 32.1097 6.91675Z" fill="black"/>
</svg>
